<?xml version="1.0" encoding="UTF-8" standalone="no"?>
<!DOCTYPE svg PUBLIC "-//W3C//DTD SVG 1.1//EN" "http://www.w3.org/Graphics/SVG/1.1/DTD/svg11.dtd">
<svg width="100%" height="100%" viewBox="0 0 350 74" version="1.1" xmlns="http://www.w3.org/2000/svg" xmlns:xlink="http://www.w3.org/1999/xlink" xml:space="preserve" style="fill-rule:evenodd;clip-rule:evenodd;stroke-linejoin:round;stroke-miterlimit:1.41421;">
    <g transform="matrix(1.75,0,0,1.75,-43.75,-49.9382)">
        <g>
            <g>
                <path d="M57.968,42.837C58.17,43.294 58.372,43.749 58.677,44.054C59.133,44.561 59.842,44.914 60.653,44.914C62.58,44.914 63.796,43.598 63.796,41.874C63.796,41.317 63.746,40.759 63.543,40.251C61.11,33.358 53.862,29 45.802,29C34.095,29 25,38.348 25,49.803C25,61.747 34.564,70.358 45.802,70.358C53.862,70.358 61.059,65.696 63.44,59.057C63.594,58.598 63.694,58.092 63.694,57.586C63.694,55.813 62.428,54.596 60.755,54.596C59.893,54.596 59.083,55.002 58.576,55.711C58.372,55.965 58.17,56.37 58.019,56.672C55.84,61.336 51.329,64.022 45.802,64.022C37.847,64.022 31.611,58.143 31.611,49.68C31.611,41.214 37.847,35.234 45.802,35.234C51.277,35.234 55.485,37.567 57.968,42.837Z" style="fill:rgb(153,202,60);fill-rule:nonzero;"/>
                <path d="M45.854,38.225C44.029,38.225 42.559,39.694 42.559,41.519C42.559,43.344 44.029,44.813 45.854,44.813C47.679,44.813 49.201,43.344 49.201,41.519C49.201,39.694 47.679,38.225 45.854,38.225Z" style="fill:rgb(153,202,60);fill-rule:nonzero;"/>
                <path d="M45.854,46.385C44.081,46.385 42.661,47.804 42.661,49.578L42.661,57.942C42.661,59.715 44.081,61.131 45.854,61.131C47.679,61.131 49.099,59.715 49.099,57.942L49.099,49.578C49.099,47.804 47.679,46.385 45.854,46.385Z" style="fill:rgb(153,202,60);fill-rule:nonzero;"/>
                <path d="M117.758,38.52C117.534,38.49 117.314,38.472 117.101,38.46C116.885,38.453 116.711,38.447 116.576,38.447C114.666,38.447 113.281,38.845 112.425,39.646C111.565,40.445 111.139,41.585 111.139,43.066L111.139,46.134L108.419,46.893L108.419,48.706L111.139,48.706L111.139,60.747L114.089,60.747L114.089,48.706L118.416,48.706L118.416,46.134L114.089,46.134L114.089,43.124C114.089,42.441 114.319,41.952 114.777,41.661C115.235,41.37 115.833,41.223 116.576,41.223C116.982,41.223 117.407,41.254 117.846,41.31C118.285,41.37 118.667,41.447 119,41.544L119,38.739C118.844,38.681 118.654,38.638 118.43,38.609C118.207,38.578 117.982,38.551 117.758,38.52Z" style="fill:rgb(153,202,60);fill-rule:nonzero;"/>
                <path d="M100.353,45.754C99.652,45.754 98.945,45.855 98.232,46.063C97.522,46.266 96.865,46.561 96.261,46.952L95.968,46.134L93.95,46.134L93.95,60.747L96.962,60.747L96.962,49.231C97.351,49.037 97.827,48.872 98.393,48.735C98.959,48.599 99.611,48.53 100.353,48.53C101.034,48.53 101.599,48.672 102.048,48.954C102.496,49.236 102.72,49.72 102.72,50.401L102.72,60.747L105.731,60.747L105.731,50.46C105.731,48.98 105.288,47.825 104.401,46.997C103.514,46.167 102.165,45.754 100.353,45.754Z" style="fill:rgb(153,202,60);fill-rule:nonzero;"/>
                <path d="M87.679,39.259C87.119,39.259 86.639,39.459 86.242,39.855C85.843,40.25 85.646,40.732 85.646,41.294C85.646,41.855 85.843,42.335 86.242,42.731C86.639,43.127 87.119,43.327 87.679,43.327C88.241,43.327 88.72,43.127 89.118,42.731C89.516,42.335 89.713,41.855 89.713,41.294C89.713,40.732 89.516,40.25 89.118,39.855C88.72,39.459 88.241,39.259 87.679,39.259Z" style="fill:rgb(153,202,60);fill-rule:nonzero;"/>
                <path d="M86.212,60.735L89.165,60.733L89.165,46.134L86.212,46.134L86.212,60.735Z" style="fill:rgb(153,202,60);fill-rule:nonzero;"/>
                <path d="M208.555,39.259C207.992,39.259 207.514,39.459 207.115,39.855C206.719,40.25 206.521,40.732 206.521,41.294C206.521,41.855 206.719,42.335 207.115,42.731C207.514,43.127 207.992,43.327 208.555,43.327C209.115,43.327 209.594,43.127 209.988,42.731C210.387,42.335 210.588,41.855 210.588,41.294C210.588,40.732 210.387,40.25 209.988,39.855C209.594,39.459 209.115,39.259 208.555,39.259Z" style="fill:rgb(153,202,60);fill-rule:nonzero;"/>
                <path d="M130.041,55.383C129.983,55.979 129.84,56.497 129.604,56.932C129.371,57.373 129.026,57.719 128.582,57.971C128.132,58.223 127.529,58.352 126.77,58.352C125.988,58.352 125.375,58.223 124.927,57.971C124.478,57.719 124.144,57.373 123.917,56.932C123.693,56.497 123.554,55.979 123.496,55.383C123.437,54.791 123.408,54.143 123.408,53.442C123.408,52.739 123.437,52.092 123.496,51.498C123.554,50.904 123.693,50.387 123.917,49.948C124.144,49.508 124.478,49.163 124.927,48.912C125.375,48.659 125.988,48.53 126.77,48.53C127.529,48.53 128.132,48.659 128.582,48.912C129.026,49.163 129.371,49.508 129.604,49.948C129.84,50.387 129.983,50.904 130.041,51.498C130.102,52.092 130.129,52.739 130.129,53.442C130.129,54.143 130.102,54.791 130.041,55.383ZM131.928,47.888C131.469,47.206 130.826,46.681 129.998,46.308C129.17,45.94 128.091,45.754 126.77,45.754C125.462,45.754 124.394,45.94 123.568,46.308C122.74,46.681 122.092,47.206 121.622,47.888C121.157,48.569 120.84,49.378 120.675,50.314C120.51,51.248 120.425,52.293 120.425,53.442C120.425,54.573 120.51,55.61 120.675,56.553C120.84,57.5 121.157,58.313 121.622,58.995C122.092,59.678 122.74,60.204 123.568,60.573C124.394,60.942 125.462,61.127 126.77,61.127C128.091,61.127 129.17,60.942 129.998,60.573C130.826,60.204 131.469,59.678 131.928,58.995C132.385,58.313 132.697,57.5 132.861,56.553C133.027,55.61 133.111,54.573 133.111,53.442C133.111,52.293 133.027,51.248 132.861,50.314C132.697,49.378 132.385,48.569 131.928,47.888Z" style="fill:rgb(153,202,60);fill-rule:nonzero;"/>
                <path d="M187.77,41.634L184.818,42.451L184.818,46.134L182.102,46.893L182.102,48.706L184.818,48.706L184.818,57.038C184.818,57.756 184.961,58.375 185.244,58.893C185.525,59.407 185.893,59.834 186.338,60.161C186.787,60.495 187.299,60.741 187.875,60.893C188.447,61.049 189.037,61.127 189.641,61.127C189.777,61.127 190.027,61.123 190.387,61.114C190.748,61.104 191.113,61.049 191.484,60.952L191.484,58.233C191.326,58.274 191.09,58.301 190.766,58.319C190.445,58.34 190.148,58.352 189.875,58.352C189.234,58.352 188.721,58.245 188.342,58.03C187.961,57.813 187.77,57.397 187.77,56.772L187.77,48.706L192.1,48.706L192.1,46.134L187.77,46.134L187.77,41.634Z" style="fill:rgb(153,202,60);fill-rule:nonzero;"/>
                <path d="M201.713,45.754C200.25,45.754 198.889,46.152 197.621,46.952L197.328,46.134L195.313,46.134L195.313,60.747L198.324,60.747L198.324,49.231C198.752,49.037 199.23,48.872 199.756,48.735C200.281,48.599 200.936,48.53 201.713,48.53C202.004,48.53 202.348,48.569 202.736,48.648C203.127,48.724 203.508,48.833 203.877,48.969L203.877,45.986C203.543,45.912 203.186,45.852 202.793,45.811C202.406,45.775 202.045,45.754 201.713,45.754Z" style="fill:rgb(153,202,60);fill-rule:nonzero;"/>
                <path d="M217.607,49.993C217.859,49.544 218.209,49.19 218.66,48.926C219.107,48.662 219.689,48.53 220.414,48.53C221.328,48.53 222.141,48.607 222.854,48.764C223.564,48.92 224.281,49.124 225,49.378L225,46.601C224.32,46.269 223.553,46.046 222.705,45.929C221.859,45.811 221.092,45.754 220.414,45.754C219.186,45.754 218.152,45.94 217.314,46.308C216.477,46.681 215.805,47.202 215.297,47.873C214.789,48.544 214.432,49.353 214.215,50.297C214,51.245 213.895,52.293 213.895,53.442C213.895,54.59 214,55.637 214.215,56.584C214.432,57.526 214.789,58.334 215.297,59.008C215.805,59.678 216.477,60.204 217.314,60.573C218.152,60.942 219.186,61.127 220.414,61.127C221.092,61.127 221.859,61.067 222.705,60.952C223.553,60.834 224.32,60.614 225,60.278L225,57.506C224.281,57.756 223.564,57.963 222.854,58.116C222.141,58.274 221.328,58.352 220.414,58.352C219.689,58.352 219.107,58.221 218.66,57.957C218.209,57.694 217.859,57.336 217.607,56.891C217.354,56.44 217.178,55.922 217.08,55.327C216.984,54.733 216.934,54.104 216.934,53.442C216.934,52.782 216.984,52.153 217.08,51.557C217.178,50.961 217.354,50.439 217.607,49.993Z" style="fill:rgb(153,202,60);fill-rule:nonzero;"/>
                <path d="M207.086,60.735L210.037,60.733L210.037,46.134L207.086,46.134L207.086,60.735Z" style="fill:rgb(153,202,60);fill-rule:nonzero;"/>
                <path d="M143.135,45.754C141.908,45.754 140.877,45.94 140.039,46.308C139.199,46.681 138.529,47.202 138.021,47.873C137.516,48.544 137.152,49.353 136.938,50.297C136.727,51.245 136.619,52.293 136.619,53.442C136.619,54.59 136.727,55.637 136.938,56.584C137.152,57.526 137.516,58.334 138.021,59.008C138.529,59.678 139.199,60.204 140.039,60.573C140.877,60.942 141.908,61.127 143.135,61.127C143.818,61.127 144.584,61.067 145.432,60.952C146.279,60.834 147.041,60.614 147.725,60.278L147.725,57.506C147.004,57.756 146.289,57.963 145.578,58.116C144.867,58.274 144.053,58.352 143.135,58.352C142.416,58.352 141.832,58.221 141.381,57.957C140.934,57.694 140.584,57.336 140.332,56.891C140.076,56.44 139.902,55.922 139.805,55.327C139.707,54.733 139.658,54.104 139.658,53.442C139.658,52.782 139.707,52.153 139.805,51.557C139.902,50.961 140.076,50.439 140.332,49.993C140.584,49.544 140.934,49.19 141.381,48.926C141.832,48.662 142.416,48.53 143.135,48.53C144.053,48.53 144.867,48.607 145.578,48.764C146.289,48.92 147.004,49.124 147.725,49.378L147.725,46.601C147.041,46.269 146.279,46.046 145.432,45.929C144.584,45.811 143.818,45.754 143.135,45.754Z" style="fill:rgb(153,202,60);fill-rule:nonzero;"/>
                <path d="M154.096,52.245C154.154,51.715 154.248,51.227 154.375,50.783C154.502,50.335 154.695,49.938 154.959,49.598C155.223,49.258 155.564,48.994 155.984,48.808C156.4,48.625 156.922,48.53 157.545,48.53C158.15,48.53 158.627,48.633 158.977,48.837C159.328,49.043 159.602,49.315 159.797,49.654C159.99,49.998 160.117,50.392 160.178,50.84C160.234,51.29 160.262,51.756 160.262,52.245L154.096,52.245ZM162.371,48.063C161.959,47.361 161.375,46.803 160.617,46.381C159.855,45.964 158.834,45.754 157.545,45.754C156.32,45.754 155.287,45.94 154.447,46.308C153.609,46.681 152.938,47.202 152.43,47.873C151.924,48.544 151.564,49.353 151.35,50.297C151.135,51.245 151.027,52.293 151.027,53.442C151.027,54.59 151.135,55.637 151.35,56.584C151.564,57.526 151.924,58.334 152.43,59.008C152.938,59.678 153.609,60.204 154.447,60.573C155.287,60.942 156.32,61.127 157.545,61.127C158.248,61.127 159.027,61.067 159.885,60.952C160.742,60.834 161.637,60.559 162.572,60.135L162.572,57.297C161.676,57.688 160.85,57.963 160.09,58.116C159.328,58.274 158.48,58.352 157.545,58.352C156.961,58.352 156.465,58.264 156.057,58.088C155.645,57.913 155.311,57.67 155.047,57.356C154.785,57.047 154.578,56.676 154.432,56.247C154.287,55.819 154.184,55.35 154.127,54.846L163.363,54.846L163.363,53.442C163.363,52.409 163.299,51.43 163.174,50.505C163.045,49.579 162.779,48.764 162.371,48.063Z" style="fill:rgb(153,202,60);fill-rule:nonzero;"/>
                <path d="M174.035,45.754C173.332,45.754 172.627,45.855 171.916,46.063C171.203,46.266 170.545,46.561 169.941,46.952L169.648,46.134L167.631,46.134L167.631,60.747L170.643,60.747L170.643,49.231C171.031,49.037 171.508,48.872 172.076,48.735C172.641,48.599 173.293,48.53 174.035,48.53C174.715,48.53 175.283,48.672 175.73,48.954C176.178,49.236 176.402,49.72 176.402,50.401L176.402,60.747L179.412,60.747L179.412,50.46C179.412,48.98 178.971,47.825 178.082,46.997C177.197,46.167 175.846,45.754 174.035,45.754Z" style="fill:rgb(153,202,60);fill-rule:nonzero;"/>
            </g>
        </g>
    </g>
</svg>
