<svg width="1" height="1" viewBox="0 0 1 1" fill="none" xmlns="http://www.w3.org/2000/svg">
<path d="M0.16484 0.465791C0.16585 0.468076 0.16686 0.470351 0.168385 0.471876C0.170665 0.474411 0.17421 0.476176 0.178265 0.476176C0.1879 0.476176 0.19398 0.469596 0.19398 0.460976C0.19398 0.458191 0.19373 0.455401 0.192715 0.452861C0.18055 0.418396 0.14431 0.396606 0.10401 0.396606C0.045475 0.396606 0 0.443346 0 0.500621C0 0.560341 0.04782 0.603396 0.10401 0.603396C0.14431 0.603396 0.180295 0.580086 0.1922 0.546891C0.19297 0.544596 0.19347 0.542066 0.19347 0.539536C0.19347 0.530671 0.18714 0.524586 0.178775 0.524586C0.174465 0.524586 0.170415 0.526616 0.16788 0.530161C0.16686 0.531431 0.16585 0.533456 0.165095 0.534966C0.1542 0.558286 0.131645 0.571716 0.10401 0.571716C0.064235 0.571716 0.033055 0.542321 0.033055 0.500006C0.033055 0.457676 0.064235 0.427776 0.10401 0.427776C0.131385 0.427776 0.152425 0.439441 0.16484 0.465791Z" fill="#99CA3C"/>
<path d="M0.10427 0.442719C0.0951453 0.442719 0.0877953 0.450064 0.0877953 0.459189C0.0877953 0.468314 0.0951453 0.475659 0.10427 0.475659C0.113395 0.475659 0.121005 0.468314 0.121005 0.459189C0.121005 0.450064 0.113395 0.442719 0.10427 0.442719Z" fill="#99CA3C"/>
<path d="M0.10427 0.483521C0.0954045 0.483521 0.0883045 0.490616 0.0883045 0.499486V0.541306C0.0883045 0.550171 0.0954045 0.557251 0.10427 0.557251C0.113395 0.557251 0.120495 0.550171 0.120495 0.541306V0.499486C0.120495 0.490616 0.113395 0.483521 0.10427 0.483521Z" fill="#99CA3C"/>
</svg>
