<svg width="1" height="1" viewBox="0 0 1 1" fill="none" xmlns="http://www.w3.org/2000/svg">
<path d="M0.46379 0.444213C0.46267 0.444063 0.46157 0.443973 0.460505 0.443913C0.459425 0.443878 0.458555 0.443848 0.45788 0.443848C0.44833 0.443848 0.441405 0.445838 0.437125 0.449843C0.432825 0.453838 0.430695 0.459538 0.430695 0.466943V0.482283L0.417095 0.486078V0.495143H0.430695V0.555348H0.445445V0.495143H0.46708V0.482283H0.445445V0.467233C0.445445 0.463818 0.446595 0.461373 0.448885 0.459918C0.451175 0.458463 0.454165 0.457728 0.45788 0.457728C0.45991 0.457728 0.462035 0.457883 0.46423 0.458163C0.466425 0.458463 0.468335 0.458848 0.47 0.459333V0.445308C0.46922 0.445018 0.46827 0.444803 0.46715 0.444658C0.466035 0.444503 0.46491 0.444368 0.46379 0.444213Z" fill="#99CA3C"/>
<path d="M0.376764 0.480377C0.373259 0.480377 0.369724 0.480882 0.366159 0.481922C0.362609 0.482937 0.359324 0.484412 0.356304 0.486367L0.354839 0.482277H0.344749V0.555342H0.359809V0.497762C0.361754 0.496792 0.364134 0.495967 0.366964 0.495282C0.369794 0.494602 0.373054 0.494257 0.376764 0.494257C0.380169 0.494257 0.382994 0.494967 0.385239 0.496377C0.387479 0.497787 0.388599 0.500207 0.388599 0.503612V0.555342H0.403654V0.503907C0.403654 0.496507 0.401439 0.490732 0.397004 0.486592C0.392569 0.482442 0.385824 0.480377 0.376764 0.480377Z" fill="#99CA3C"/>
<path d="M0.313395 0.447906C0.310595 0.447906 0.308195 0.448906 0.30621 0.450886C0.304215 0.452861 0.30323 0.455271 0.30323 0.458081C0.30323 0.460886 0.304215 0.463286 0.30621 0.465266C0.308195 0.467246 0.310595 0.468246 0.313395 0.468246C0.316205 0.468246 0.3186 0.467246 0.32059 0.465266C0.32258 0.463286 0.323565 0.460886 0.323565 0.458081C0.323565 0.455271 0.32258 0.452861 0.32059 0.450886C0.3186 0.448906 0.316205 0.447906 0.313395 0.447906Z" fill="#99CA3C"/>
<path d="M0.306061 0.555274L0.320826 0.555264V0.482269H0.306061V0.555274Z" fill="#99CA3C"/>
<path d="M0.917774 0.447906C0.914959 0.447906 0.912569 0.448906 0.910574 0.450886C0.908594 0.452861 0.907604 0.455271 0.907604 0.458081C0.907604 0.460886 0.908594 0.463286 0.910574 0.465266C0.912569 0.467246 0.914959 0.468246 0.917774 0.468246C0.920574 0.468246 0.922969 0.467246 0.924939 0.465266C0.926934 0.463286 0.927939 0.460886 0.927939 0.458081C0.927939 0.455271 0.926934 0.452861 0.924939 0.450886C0.922969 0.448906 0.920574 0.447906 0.917774 0.447906Z" fill="#99CA3C"/>
<path d="M0.525205 0.528522C0.524915 0.531502 0.5242 0.534092 0.52302 0.536267C0.521855 0.538472 0.52013 0.540202 0.51791 0.541462C0.51566 0.542722 0.512645 0.543367 0.50885 0.543367C0.50494 0.543367 0.501875 0.542722 0.499635 0.541462C0.49739 0.540202 0.49572 0.538472 0.494585 0.536267C0.493465 0.534092 0.49277 0.531502 0.49248 0.528522C0.492185 0.525562 0.49204 0.522322 0.49204 0.518817C0.49204 0.515302 0.492185 0.512067 0.49248 0.509097C0.49277 0.506127 0.493465 0.503542 0.494585 0.501347C0.49572 0.499147 0.49739 0.497422 0.499635 0.496167C0.501875 0.494902 0.50494 0.494257 0.50885 0.494257C0.512645 0.494257 0.51566 0.494902 0.51791 0.496167C0.52013 0.497422 0.521855 0.499147 0.52302 0.501347C0.5242 0.503542 0.524915 0.506127 0.525205 0.509097C0.52551 0.512067 0.525645 0.515302 0.525645 0.518817C0.525645 0.522322 0.52551 0.525562 0.525205 0.528522ZM0.53464 0.491047C0.532345 0.487637 0.52913 0.485012 0.52499 0.483147C0.52085 0.481307 0.515455 0.480377 0.50885 0.480377C0.50231 0.480377 0.49697 0.481307 0.49284 0.483147C0.4887 0.485012 0.48546 0.487637 0.48311 0.491047C0.480785 0.494452 0.4792 0.498497 0.478375 0.503177C0.47755 0.507847 0.477125 0.513072 0.477125 0.518817C0.477125 0.524472 0.47755 0.529657 0.478375 0.534372C0.4792 0.539107 0.480785 0.543172 0.48311 0.546582C0.48546 0.549997 0.4887 0.552627 0.49284 0.554472C0.49697 0.556317 0.50231 0.557242 0.50885 0.557242C0.515455 0.557242 0.52085 0.556317 0.52499 0.554472C0.52913 0.552627 0.532345 0.549997 0.53464 0.546582C0.536925 0.543172 0.538485 0.539107 0.539305 0.534372C0.540135 0.529657 0.540555 0.524472 0.540555 0.518817C0.540555 0.513072 0.540135 0.507847 0.539305 0.503177C0.538485 0.498497 0.536925 0.494452 0.53464 0.491047Z" fill="#99CA3C"/>
<path d="M0.813849 0.459778L0.799089 0.463863V0.482278L0.785509 0.486073V0.495138H0.799089V0.536798C0.799089 0.540388 0.799804 0.543483 0.801219 0.546073C0.802624 0.548643 0.804464 0.550778 0.806689 0.552413C0.808934 0.554083 0.811494 0.555313 0.814374 0.556073C0.817234 0.556853 0.820184 0.557243 0.823204 0.557243C0.823884 0.557243 0.825134 0.557223 0.826934 0.557178C0.828739 0.557128 0.830564 0.556853 0.832419 0.556368V0.542773C0.831629 0.542978 0.830449 0.543113 0.828829 0.543203C0.827224 0.543308 0.825739 0.543368 0.824374 0.543368C0.821169 0.543368 0.818604 0.542833 0.816709 0.541758C0.814804 0.540673 0.813849 0.538593 0.813849 0.535468V0.495138H0.835499V0.482278H0.813849V0.459778Z" fill="#99CA3C"/>
<path d="M0.883564 0.480377C0.876249 0.480377 0.869444 0.482367 0.863104 0.486367L0.861639 0.482277H0.851564V0.555342H0.866619V0.497762C0.868759 0.496792 0.871149 0.495967 0.873779 0.495282C0.876404 0.494602 0.879679 0.494257 0.883564 0.494257C0.885019 0.494257 0.886739 0.494452 0.888679 0.494847C0.890634 0.495227 0.892539 0.495772 0.894384 0.496452V0.481537C0.892714 0.481167 0.890929 0.480867 0.888964 0.480662C0.887029 0.480482 0.885224 0.480377 0.883564 0.480377Z" fill="#99CA3C"/>
<path d="M0.963035 0.501572C0.964295 0.499327 0.966045 0.497557 0.9683 0.496237C0.970535 0.494917 0.973445 0.494257 0.97707 0.494257C0.98164 0.494257 0.985705 0.494642 0.98927 0.495427C0.99282 0.496207 0.996405 0.497227 1 0.498497V0.484612C0.9966 0.482952 0.992765 0.481837 0.988525 0.481252C0.984295 0.480662 0.98046 0.480377 0.97707 0.480377C0.97093 0.480377 0.96576 0.481307 0.96157 0.483147C0.957385 0.485012 0.954025 0.487617 0.951485 0.490972C0.948945 0.494327 0.94716 0.498372 0.946075 0.503092C0.945 0.507832 0.944475 0.513072 0.944475 0.518817C0.944475 0.524557 0.945 0.529792 0.946075 0.534527C0.94716 0.539237 0.948945 0.543277 0.951485 0.546647C0.954025 0.549997 0.957385 0.552627 0.96157 0.554472C0.96576 0.556317 0.97093 0.557242 0.97707 0.557242C0.98046 0.557242 0.984295 0.556942 0.988525 0.556367C0.992765 0.555777 0.9966 0.554677 1 0.552997V0.539137C0.996405 0.540387 0.99282 0.541422 0.98927 0.542187C0.985705 0.542977 0.98164 0.543367 0.97707 0.543367C0.973445 0.543367 0.970535 0.542712 0.9683 0.541392C0.966045 0.540077 0.964295 0.538287 0.963035 0.536062C0.96177 0.533807 0.96089 0.531217 0.9604 0.528242C0.95992 0.525272 0.95967 0.522127 0.95967 0.518817C0.95967 0.515517 0.95992 0.512372 0.9604 0.509392C0.96089 0.506412 0.96177 0.503802 0.963035 0.501572Z" fill="#99CA3C"/>
<path d="M0.910431 0.555274L0.925186 0.555264V0.482269H0.910431V0.555274Z" fill="#99CA3C"/>
<path d="M0.590676 0.480377C0.584541 0.480377 0.579386 0.481307 0.575196 0.483147C0.570996 0.485012 0.567646 0.487617 0.565106 0.490972C0.562581 0.494327 0.560761 0.498372 0.559691 0.503092C0.558636 0.507832 0.558096 0.513072 0.558096 0.518817C0.558096 0.524557 0.558636 0.529792 0.559691 0.534527C0.560761 0.539237 0.562581 0.543277 0.565106 0.546647C0.567646 0.549997 0.570996 0.552627 0.575196 0.554472C0.579386 0.556317 0.584541 0.557242 0.590676 0.557242C0.594091 0.557242 0.597921 0.556942 0.602161 0.556367C0.606396 0.555777 0.610206 0.554677 0.613626 0.552997V0.539137C0.610021 0.540387 0.606446 0.541422 0.602891 0.542187C0.599336 0.542977 0.595266 0.543367 0.590676 0.543367C0.587081 0.543367 0.584161 0.542712 0.581906 0.541392C0.579671 0.540077 0.577921 0.538287 0.576661 0.536062C0.575381 0.533807 0.574511 0.531217 0.574026 0.528242C0.573536 0.525272 0.573291 0.522127 0.573291 0.518817C0.573291 0.515517 0.573536 0.512372 0.574026 0.509392C0.574511 0.506412 0.575381 0.503802 0.576661 0.501572C0.577921 0.499327 0.579671 0.497557 0.581906 0.496237C0.584161 0.494917 0.587081 0.494257 0.590676 0.494257C0.595266 0.494257 0.599336 0.494642 0.602891 0.495427C0.606446 0.496207 0.610021 0.497227 0.613626 0.498497V0.484612C0.610206 0.482952 0.606396 0.481837 0.602161 0.481252C0.597921 0.480662 0.594091 0.480377 0.590676 0.480377Z" fill="#99CA3C"/>
<path d="M0.64548 0.512832C0.64577 0.510182 0.64624 0.507742 0.646875 0.505522C0.64751 0.503282 0.648475 0.501297 0.649795 0.499597C0.651115 0.497897 0.65282 0.496577 0.65492 0.495647C0.657 0.494732 0.65961 0.494257 0.662725 0.494257C0.66575 0.494257 0.668135 0.494772 0.669885 0.495792C0.67164 0.496822 0.67301 0.498182 0.673985 0.499877C0.67495 0.501597 0.675585 0.503567 0.67589 0.505807C0.67617 0.508057 0.67631 0.510387 0.67631 0.512832H0.64548ZM0.686855 0.491922C0.684795 0.488412 0.681875 0.485622 0.678085 0.483512C0.674275 0.481427 0.66917 0.480377 0.662725 0.480377C0.6566 0.480377 0.651435 0.481307 0.647235 0.483147C0.643045 0.485012 0.63969 0.487617 0.63715 0.490972C0.63462 0.494327 0.63282 0.498372 0.63175 0.503092C0.630675 0.507832 0.630135 0.513072 0.630135 0.518817C0.630135 0.524557 0.630675 0.529792 0.63175 0.534527C0.63282 0.539237 0.63462 0.543277 0.63715 0.546647C0.63969 0.549997 0.643045 0.552627 0.647235 0.554472C0.651435 0.556317 0.6566 0.557242 0.662725 0.557242C0.66624 0.557242 0.670135 0.556942 0.674425 0.556367C0.67871 0.555777 0.683185 0.554402 0.68786 0.552282V0.538092C0.68338 0.540047 0.67925 0.541422 0.67545 0.542187C0.67164 0.542977 0.6674 0.543367 0.662725 0.543367C0.659805 0.543367 0.657325 0.542927 0.655285 0.542047C0.653225 0.541172 0.651555 0.539957 0.650235 0.538387C0.648925 0.536842 0.64789 0.534987 0.64716 0.532842C0.646435 0.530702 0.64592 0.528357 0.645635 0.525837H0.691815V0.518817C0.691815 0.513652 0.691495 0.508757 0.69087 0.504132C0.690225 0.499502 0.688895 0.495427 0.686855 0.491922Z" fill="#99CA3C"/>
<path d="M0.745176 0.480377C0.741661 0.480377 0.738136 0.480882 0.734581 0.481922C0.731016 0.482937 0.727726 0.484412 0.724706 0.486367L0.723241 0.482277H0.713156V0.555342H0.728216V0.497762C0.730156 0.496792 0.732541 0.495967 0.735381 0.495282C0.738206 0.494602 0.741466 0.494257 0.745176 0.494257C0.748576 0.494257 0.751416 0.494967 0.753651 0.496377C0.755891 0.497787 0.757011 0.500207 0.757011 0.503612V0.555342H0.772061V0.503907C0.772061 0.496507 0.769856 0.490732 0.765411 0.486592C0.760986 0.482442 0.754231 0.480377 0.745176 0.480377Z" fill="#99CA3C"/>
</svg>
